<svg width="1920" height="522" viewBox="0 0 1920 522" fill="none" xmlns="http://www.w3.org/2000/svg">
<g style="mix-blend-mode:multiply" opacity="0.4">
<path fill-rule="evenodd" clip-rule="evenodd" d="M600.001 0.585441C600.192 0.584492 600.383 0.584015 600.576 0.584015H600V0.585434C599.809 0.58449 599.617 0.584015 599.424 0.584015V0.589796C585.228 0.733477 577.935 3.53193 570.633 6.33366C563.118 9.2171 555.594 12.104 540.528 12.104C525.57 12.104 518.082 9.23092 510.585 6.35437C503.07 3.47092 495.546 0.584015 480.48 0.584015C465.522 0.584015 458.034 3.45711 450.537 6.33366C443.022 9.2171 435.498 12.104 420.432 12.104C405.474 12.104 397.986 9.23092 390.489 6.35437C382.974 3.47092 375.45 0.584015 360.384 0.584015C345.426 0.584015 337.938 3.45711 330.441 6.33366C322.926 9.2171 315.402 12.104 300.336 12.104C285.378 12.104 277.89 9.23092 270.393 6.35437C262.878 3.47092 255.354 0.584015 240.288 0.584015C225.33 0.584015 217.842 3.45711 210.345 6.33366C202.83 9.2171 195.306 12.104 180.24 12.104C165.282 12.104 157.794 9.23092 150.297 6.35437C142.782 3.47093 135.258 0.584015 120.192 0.584015C105.144 0.584015 97.656 3.46401 90.168 6.34401C82.68 9.22401 75.192 12.104 60.144 12.104C45.096 12.104 37.608 9.22401 30.12 6.34401C22.632 3.46401 15.144 0.584015 0.0960007 0.584015C-14.862 0.584015 -22.35 3.45711 -29.847 6.33366C-37.362 9.2171 -44.886 12.104 -59.952 12.104C-75 12.104 -82.488 9.22401 -89.976 6.34401C-97.464 3.46401 -104.952 0.584015 -120 0.584015V377H0V522H1920V377H2039V0.585447C2039.19 0.584494 2039.38 0.584015 2039.58 0.584015H2039V0.585447C2024.42 0.65824 2017.03 3.49426 2009.63 6.33363C2002.12 9.21709 1994.59 12.104 1979.53 12.104C1964.57 12.104 1957.08 9.23092 1949.58 6.35438C1942.07 3.47093 1934.55 0.584015 1919.48 0.584015C1904.52 0.584015 1897.03 3.45711 1889.54 6.33365C1882.02 9.2171 1874.5 12.104 1859.43 12.104C1844.47 12.104 1836.99 9.23092 1829.49 6.35438C1821.97 3.47093 1814.45 0.584015 1799.38 0.584015C1784.43 0.584015 1776.94 3.45711 1769.44 6.33365C1761.93 9.2171 1754.4 12.104 1739.34 12.104C1724.38 12.104 1716.89 9.23092 1709.39 6.35438C1701.88 3.47093 1694.35 0.584015 1679.29 0.584015C1664.33 0.584015 1656.84 3.45712 1649.34 6.33366C1641.83 9.21711 1634.31 12.104 1619.24 12.104C1604.28 12.104 1596.79 9.23091 1589.3 6.35437C1581.78 3.47092 1574.26 0.584015 1559.19 0.584015C1544.14 0.584015 1536.66 3.46402 1529.17 6.34402C1521.68 9.22402 1514.19 12.104 1499.14 12.104C1484.1 12.104 1476.61 9.22401 1469.12 6.34401C1461.63 3.46401 1454.14 0.584015 1439.1 0.584015C1424.14 0.584015 1416.65 3.4571 1409.15 6.33364C1401.64 9.2171 1394.11 12.104 1379.05 12.104C1364 12.104 1356.51 9.22401 1349.02 6.34401C1341.62 3.49616 1334.22 0.648308 1319.5 0.585087C1319.67 0.584374 1319.83 0.584015 1320 0.584015H1319.42V0.584781C1319.28 0.584271 1319.14 0.584015 1319 0.584015V0.588358C1304.7 0.713481 1297.39 3.52184 1290.06 6.33353L1290.06 6.33365C1282.54 9.2171 1275.02 12.104 1259.95 12.104C1244.99 12.104 1237.51 9.23091 1230.01 6.35437C1222.49 3.47092 1214.97 0.584015 1199.9 0.584015C1184.95 0.584015 1177.46 3.45712 1169.96 6.33366C1162.45 9.21711 1154.92 12.104 1139.86 12.104C1124.9 12.104 1117.41 9.23091 1109.91 6.35437C1102.4 3.47092 1094.87 0.584015 1079.81 0.584015C1064.85 0.584015 1057.36 3.45711 1049.86 6.33365C1042.35 9.2171 1034.83 12.104 1019.76 12.104C1004.8 12.104 997.314 9.23092 989.817 6.35439C982.302 3.47093 974.778 0.584015 959.712 0.584015C944.754 0.584015 937.266 3.45712 929.769 6.33366C922.254 9.21711 914.73 12.104 899.664 12.104C884.706 12.104 877.218 9.23092 869.721 6.35437C862.206 3.47092 854.682 0.584015 839.616 0.584015C824.568 0.584015 817.08 3.46401 809.592 6.34401C802.104 9.22401 794.616 12.104 779.568 12.104C764.52 12.104 757.032 9.22401 749.544 6.34401C742.056 3.46401 734.568 0.584015 719.52 0.584015C704.562 0.584015 697.074 3.45711 689.577 6.33366C682.062 9.2171 674.538 12.104 659.472 12.104C644.424 12.104 636.936 9.22402 629.448 6.34402C622.056 3.5011 614.665 0.658171 600.001 0.585441Z" fill="#65a4f7"/>
</g>
</svg>